<svg xmlns="http://www.w3.org/2000/svg" viewBox="0 0 141 64">
    <path fill-rule="evenodd" fill="#666"
        d="M63.679 63.167v-7.085h7.089v7.085h-7.089zm0-17.662h7.089v7.085h-7.089v-7.085zm-10.94 10.577h7.09v7.085h-7.09v-7.085zm0-10.577h7.09v7.085h-7.09v-7.085zM41.8 56.082h7.09v7.085H41.8v-7.085zm0-10.577h7.09v7.085H41.8v-7.085zM30.861 56.082h7.09v7.085h-7.09v-7.085zm0-10.577h7.09v7.085h-7.09v-7.085zM19.922 56.082h7.09v7.085h-7.09v-7.085zm0-10.577h7.09v7.085h-7.09v-7.085zM8.983 56.082h7.09v7.085h-7.09v-7.085zm0-10.577h7.09v7.085h-7.09v-7.085zM137.612 29.055h-2.427v-5.963h2.41c1.816 0 3.176 1.192 3.176 3.007 0 1.823-1.369 2.956-3.159 2.956zm-.086-4.864h-1.145v3.764h1.162c1.05 0 2.023-.553 2.023-1.856 0-1.295-.973-1.908-2.04-1.908zm-4.632 3.671h-2.711l-.456 1.193h-1.265l2.41-5.963h1.351l2.41 5.963h-1.282l-.457-1.193zm-.921-2.385c-.206-.511-.413-1.039-.421-1.048h-.026c-.009.009-.215.528-.422 1.048l-.508 1.312h1.877l-.5-1.312zm-6.654 3.688c-1.816 0-3.159-1.26-3.159-3.092 0-1.84 1.343-3.1 3.159-3.1 1.816 0 3.159 1.26 3.159 3.1 0 1.832-1.343 3.092-3.159 3.092zm0-5.077c-1.111 0-1.954.767-1.954 1.985 0 1.21.843 1.976 1.954 1.976 1.11 0 1.954-.758 1.954-1.976s-.844-1.985-1.954-1.985zm-7.417-.996h1.197v4.863h2.857v1.1h-4.054v-5.963zm-2.807 5.963h-1.205v-2.428l-2.272-3.535 1.386-.009 1.067 1.738c.249.4.439.724.447.732h.026c.009-.008.189-.332.439-.724l1.102-1.737h1.282l-2.272 3.535v2.428zm-4.051 0l-.456-1.193h-2.711l-.457 1.193h-1.265l2.41-5.963h1.351l2.41 5.963h-1.282zm-1.377-3.578c-.207-.511-.413-1.039-.422-1.048h-.026c-.008.009-.215.528-.421 1.048l-.508 1.312h1.876l-.499-1.312zm-5.541 1.593h-.912v1.985h-1.197v-5.963h2.109c1.446 0 2.324.724 2.324 1.993 0 1.227-.878 1.985-2.324 1.985zm.034-2.896h-.946v1.857h.946c.741 0 1.093-.35 1.093-.929 0-.596-.37-.928-1.093-.928zm-7.041 4.881h-1.197v-4.864h-1.919v-1.099h5.035v1.099h-1.919v4.864zm-7.831-3.987h-.026c0 .008.018.724.018 1.482v2.505h-1.197v-5.963h1.214l2.883 3.927h.026c0-.009-.017-.75-.017-1.406v-2.521h1.196v5.963h-1.213l-2.884-3.987zm-6.401-1.976h4.278v1.099h-3.081v1.252h2.315v1.107h-2.315v1.405H87.2v1.1h-4.313v-5.963zm.317 9.937c-.276-.46-.801-.895-1.653-.895-1.11 0-1.859.784-1.859 1.977 0 1.218.792 1.984 1.851 1.984.852 0 1.454-.443 1.738-1.039l1.179.307c-.464 1.149-1.558 1.848-2.857 1.848-1.782 0-3.116-1.244-3.116-3.109 0-1.832 1.334-3.084 3.116-3.084 1.394 0 2.393.75 2.788 1.687l-1.187.324zm-4.247-3.974H76.53v-5.963h2.41c1.816 0 3.176 1.192 3.176 3.007 0 1.823-1.368 2.956-3.159 2.956zm-.086-4.864h-1.144v3.764h1.162c1.05 0 2.022-.553 2.022-1.856 0-1.295-.972-1.908-2.04-1.908zM77.224 37.1l-.457-1.192h-2.711L73.6 37.1h-1.265l2.41-5.962h1.351l2.41 5.962h-1.282zm-1.378-3.577c-.206-.511-.413-1.039-.421-1.048h-.026c-.008.009-.215.528-.422 1.048l-.508 1.312h1.877l-.5-1.312zm-4.506-8.455h-.025c0 .008.017.724.017 1.482v2.505h-1.196v-5.963h1.213l2.884 3.927h.025c0-.009-.017-.75-.017-1.406v-2.521h1.197v5.963h-1.214l-2.884-3.987zm-6.4-1.976h4.277v1.099h-3.081v1.252h2.315v1.107h-2.315v1.405h3.116v1.1H64.94v-5.963zm-2.929 3.978h-.912v1.985h-1.197v-5.963h2.109c1.446 0 2.324.724 2.324 1.993 0 1.227-.878 1.985-2.324 1.985zm.034-2.896h-.946v1.857h.946c.741 0 1.093-.35 1.093-.929 0-.596-.37-.928-1.093-.928zm-7.339-1.082h4.278v1.099h-3.081v1.252h2.315v1.107h-2.315v1.405h3.115v1.1h-4.312v-5.963zm-3.93 5.963h-2.427v-5.963h2.41c1.816 0 3.176 1.192 3.176 3.007 0 1.823-1.368 2.956-3.159 2.956zm-.086-4.864h-1.144v3.764h1.162c1.05 0 2.022-.553 2.022-1.856 0-1.295-.972-1.908-2.04-1.908zm-.311 10.874c0-.009-.018-.75-.018-1.406v-2.521h1.197V37.1h-1.214l-2.883-3.986h-.026c0 .008.017.724.017 1.482V37.1h-1.196v-5.962h1.213l2.884 3.927h.026zm-6.514-9.554h3.425v.971h-3.425v-.971zm-5.244-.443h-.025c0 .008.017.724.017 1.482v2.505h-1.197v-5.963h1.214l2.883 3.927h.026c0-.009-.017-.75-.017-1.406v-2.521h1.196v5.963h-1.213l-2.884-3.987zm-5.154 4.097c-1.816 0-3.158-1.26-3.158-3.092 0-1.84 1.342-3.1 3.158-3.1 1.816 0 3.159 1.26 3.159 3.1 0 1.832-1.343 3.092-3.159 3.092zm0-5.077c-1.11 0-1.953.767-1.953 1.985 0 1.21.843 1.976 1.953 1.976 1.111 0 1.954-.758 1.954-1.976s-.843-1.985-1.954-1.985zm.456 8.149h-3.081v1.252h2.315v1.107h-2.315v1.405h3.116V37.1h-4.312v-5.962h4.277v1.099zm-5.591-9.145h1.197v5.963h-1.197v-5.963zM25.6 25.57c.895.171 1.911.512 1.911 1.815 0 1.184-.844 1.78-2.273 1.78-1.033 0-2.212-.315-2.505-1.627l1.145-.306c.095.587.62.894 1.36.894.654 0 1.059-.247 1.059-.741 0-.707-.809-.699-1.558-.878-.818-.187-1.842-.536-1.842-1.78 0-1.158.878-1.754 2.203-1.754 1.188 0 2.049.485 2.367 1.533l-1.144.298c-.155-.503-.551-.784-1.248-.784-.663 0-.956.256-.956.673 0 .597.637.707 1.481.877zm-5.608 3.595c-1.032 0-2.212-.315-2.504-1.627l1.144-.306c.095.587.62.894 1.36.894.654 0 1.059-.247 1.059-.741 0-.707-.809-.699-1.558-.878-.818-.187-1.842-.536-1.842-1.78 0-1.158.878-1.754 2.204-1.754 1.188 0 2.048.485 2.366 1.533l-1.144.298c-.155-.503-.551-.784-1.248-.784-.663 0-.956.256-.956.673 0 .597.637.707 1.481.877.895.171 1.911.512 1.911 1.815 0 1.184-.844 1.78-2.273 1.78zM8.489.789h13.776v13.633H8.489V.789zM9.56 13.362h11.633V1.849H9.56v11.513zm6.487-2.178h-1.341V8.269h-2.945V6.942h2.945V4.027h1.341v2.915h2.945v1.327h-2.945v2.915zm-5.792 23.369c-.818-.187-1.842-.536-1.842-1.78 0-1.158.878-1.755 2.203-1.755 1.188 0 2.049.486 2.367 1.533l-1.144.299c-.155-.503-.551-.784-1.248-.784-.663 0-.956.256-.956.673 0 .596.637.707 1.481.877.895.171 1.91.512 1.91 1.815 0 1.184-.843 1.78-2.272 1.78-1.033 0-2.212-.315-2.504-1.627l1.144-.306c.095.587.62.894 1.36.894.654 0 1.059-.247 1.059-.741 0-.707-.809-.699-1.558-.878zm-4.049-9.13l-.62.442-.542-.766-.542.766-.62-.442.56-.75-.887-.264.232-.716.878.282-.008-.929h.766v.929l.878-.282.232.716-.895.264.568.75zm-3.271 0l-.62.442-.542-.766-.542.766-.62-.442.56-.75-.887-.264.232-.716.878.282-.008-.929h.766v.929l.878-.282.232.716-.895.264.568.75zm6.795 3.632H8.534v-5.963h1.273l1.687 2.99h.026l1.696-2.99h1.222v5.963h-1.197v-1.866c0-1.244.018-2.121.018-2.13h-.018c-.008.009-.275.52-.654 1.185l-.757 1.337h-.68l-.757-1.32c-.388-.682-.646-1.193-.655-1.202h-.025c0 .009.017.886.017 2.13v1.866zm5.803-5.963h1.196v5.963h-1.196v-5.963zm-.04 9.775c.249.4.439.724.447.732h.026c.009-.008.19-.332.439-.724l1.102-1.737h1.282l-2.272 3.534V37.1h-1.205v-2.428l-2.272-3.534 1.386-.009 1.067 1.738zm5.805 3.305c.654 0 1.059-.247 1.059-.741 0-.707-.809-.699-1.558-.878-.818-.187-1.842-.536-1.842-1.78 0-1.158.878-1.755 2.203-1.755 1.188 0 2.049.486 2.367 1.533l-1.144.299c-.155-.503-.551-.784-1.248-.784-.663 0-.956.256-.956.673 0 .596.637.707 1.481.877.895.171 1.91.512 1.91 1.815 0 1.184-.843 1.78-2.272 1.78-1.033 0-2.212-.315-2.504-1.627l1.144-.306c.095.587.62.894 1.36.894zm7.73-3.935h-1.92V37.1h-1.196v-4.863h-1.919v-1.099h5.035v1.099zm8.774 1.891h.026l1.696-2.99h1.222V37.1h-1.197v-1.865c0-1.244.018-2.121.018-2.13h-.018c-.008.009-.275.52-.654 1.184l-.757 1.338h-.68l-.757-1.32c-.388-.682-.646-1.193-.655-1.202h-.025c0 .009.017.886.017 2.13V37.1h-1.197v-5.962h1.274l1.687 2.99zM45.18 37.1h-1.197v-5.962h1.197V37.1zm12.031-4.863h-1.92V37.1h-1.196v-4.863h-1.92v-1.099h5.036v1.099zm4.895 0h-3.081v1.252h2.315v1.107h-2.315v1.405h3.116V37.1h-4.313v-5.962h4.278v1.099zm5.411.86c0 .86-.448 1.439-1.222 1.678l1.42 2.325h-1.42l-1.214-2.095h-.86V37.1h-1.197v-5.962h2.135c1.489 0 2.358.749 2.358 1.959zm-3.296.954h1.024c.654 0 1.05-.273 1.05-.894 0-.614-.379-.937-1.067-.937h-1.007v1.831zm8.402-1.814h-3.021v1.422h2.367v1.107h-2.367V37.1h-1.196v-5.962h4.217v1.099zm16.822 0h-3.082v1.252h2.316v1.107h-2.316v1.405h3.116V37.1h-4.312v-5.962h4.278v1.099zm3.016 3.935c.654 0 1.059-.247 1.059-.741 0-.707-.809-.699-1.558-.878-.818-.187-1.842-.536-1.842-1.78 0-1.158.878-1.755 2.203-1.755 1.188 0 2.049.486 2.367 1.533l-1.144.299c-.155-.503-.551-.784-1.248-.784-.663 0-.956.256-.956.673 0 .596.637.707 1.481.877.895.171 1.91.512 1.91 1.815 0 1.184-.843 1.78-2.272 1.78-1.033 0-2.212-.315-2.505-1.627l1.145-.306c.095.587.62.894 1.36.894z" />
</svg>