<?xml version="1.0" encoding="UTF-8"?>
<svg id="_图层_2" data-name="图层 2" xmlns="http://www.w3.org/2000/svg" viewBox="0 0 205.46 11.06">
  <defs>
    <style>
      .cls-1 {
        fill: #858585;
      }
    </style>
  </defs>
  <g id="_图层_1-2" data-name="图层 1">
    <path class="cls-1" d="M0,0h10.63l-5.32,9L0,0Z"/>
    <path class="cls-1" d="M7.79,9.15L12.75.16h2.43l-4.96,9h-2.43Z"/>
    <path class="cls-1" d="M11.92,9.23L16.88.24h2.43l-4.96,9h-2.43Z"/>
    <path class="cls-1" d="M24.75,7.27c.31-.22.55-.54.74-.94l1.45.84c-.22.59-.61,1.08-1.19,1.46-.58.38-1.26.57-2.06.57s-1.48-.19-2.12-.56-1.15-.91-1.52-1.6-.56-1.49-.56-2.38.19-1.69.56-2.38.88-1.22,1.52-1.6,1.35-.56,2.13-.56,1.49.19,2.06.57c.58.38.97.87,1.19,1.46l-1.45.84c-.18-.4-.43-.71-.74-.94-.31-.22-.67-.34-1.1-.34-.45,0-.85.12-1.2.36-.35.24-.63.58-.83,1.03s-.31.96-.31,1.55.1,1.11.31,1.56c.2.45.48.79.83,1.03.35.24.75.36,1.2.36.42,0,.79-.11,1.1-.34Z"/>
    <path class="cls-1" d="M36.67,11.06h-2.41l-2.21-1.88c-.19.02-.34.02-.44.02-.78,0-1.49-.18-2.13-.55-.64-.36-1.14-.89-1.51-1.58-.37-.69-.55-1.5-.55-2.42s.18-1.72.55-2.41c.37-.69.87-1.21,1.51-1.58.64-.36,1.35-.55,2.13-.55s1.49.18,2.13.55c.64.36,1.14.89,1.51,1.58s.56,1.49.56,2.41-.18,1.68-.53,2.36c-.35.68-.83,1.2-1.43,1.58l2.82,2.47ZM29.55,6.2c.2.45.47.79.83,1.04s.77.37,1.23.37.87-.12,1.23-.37.63-.59.83-1.04c.2-.45.29-.96.29-1.55s-.1-1.1-.29-1.54c-.2-.44-.47-.79-.83-1.03s-.77-.37-1.23-.37-.87.12-1.23.37-.63.59-.83,1.03c-.2.44-.29.96-.29,1.54s.1,1.1.29,1.55Z"/>
    <path class="cls-1" d="M42.88.27h1.74v5.23c0,.75-.15,1.41-.44,1.96s-.72.98-1.28,1.28c-.56.3-1.22.45-1.99.45s-1.44-.15-2-.45c-.56-.3-.99-.73-1.28-1.28s-.44-1.21-.44-1.96V.27h1.74v4.81c0,.85.17,1.48.52,1.9.35.42.84.62,1.47.62s1.11-.21,1.46-.62c.35-.42.52-1.05.52-1.9V.27Z"/>
    <path class="cls-1" d="M49.39.27c.7,0,1.3.12,1.82.36.52.24.92.58,1.21,1.01.28.44.43.95.43,1.53s-.14,1.08-.43,1.52c-.28.44-.69.77-1.21,1.01s-1.13.35-1.82.35h-1.28v3h-1.74V.27h3.02ZM49.2,4.58c.54,0,.98-.12,1.31-.35.33-.24.49-.59.49-1.05s-.16-.82-.49-1.06-.76-.37-1.31-.37h-1.09v2.83h1.09Z"/>
    <path class="cls-1" d="M53.19.27h7.08v1.55h-2.66v7.24h-1.75V1.82h-2.66V.27Z"/>
    <path class="cls-1" d="M69.03,7.27c.31-.22.55-.54.74-.94l1.45.84c-.22.59-.61,1.08-1.19,1.46-.58.38-1.26.57-2.06.57s-1.48-.19-2.12-.56-1.15-.91-1.52-1.6-.56-1.49-.56-2.38.19-1.69.56-2.38.88-1.22,1.52-1.6,1.35-.56,2.13-.56,1.49.19,2.06.57c.58.38.97.87,1.19,1.46l-1.45.84c-.18-.4-.43-.71-.74-.94-.31-.22-.67-.34-1.1-.34-.45,0-.85.12-1.2.36-.35.24-.63.58-.83,1.03s-.31.96-.31,1.55.1,1.11.31,1.56c.2.45.48.79.83,1.03.35.24.75.36,1.2.36.42,0,.79-.11,1.1-.34Z"/>
    <path class="cls-1" d="M72.35.27h1.74v7.22h4v1.56h-5.74V.27Z"/>
    <path class="cls-1" d="M84.42.27h1.74v5.23c0,.75-.15,1.41-.44,1.96s-.72.98-1.28,1.28c-.56.3-1.22.45-1.99.45s-1.44-.15-2-.45c-.56-.3-.99-.73-1.28-1.28s-.44-1.21-.44-1.96V.27h1.74v4.81c0,.85.17,1.48.52,1.9.35.42.84.62,1.47.62s1.11-.21,1.46-.62c.35-.42.52-1.05.52-1.9V.27Z"/>
    <path class="cls-1" d="M94.73,6.52c0,.79-.29,1.41-.87,1.86-.58.45-1.39.67-2.44.67h-3.5V.27h3.18c.94,0,1.7.21,2.29.64.59.43.88,1.03.88,1.81s-.33,1.4-.98,1.78c.97.34,1.45,1.02,1.45,2.03ZM89.62,1.78v2.08h1.31c.47,0,.85-.1,1.12-.29.28-.2.41-.46.41-.79s-.14-.57-.41-.74c-.27-.17-.65-.26-1.13-.26h-1.31ZM91.27,7.54c.53,0,.93-.1,1.22-.29.28-.19.43-.46.43-.82s-.14-.63-.43-.83c-.28-.2-.69-.3-1.23-.3h-1.64v2.23h1.66Z"/>
    <path class="cls-1" d="M99.31.27h1.74v7.22h4v1.56h-5.74V.27Z"/>
    <path class="cls-1" d="M110.39.27l3.55,8.78h-1.85l-.77-2h-3.42l-.74,2h-1.74l3.44-8.78h1.52ZM110.76,5.56l-1.18-3.08-1.14,3.08h2.32Z"/>
    <path class="cls-1" d="M116.35.27l4.26,5.81V.27h1.62v8.78h-1.42l-4.27-5.82v5.82h-1.6V.27h1.4Z"/>
    <path class="cls-1" d="M129.53,8.02c-.31.4-.71.7-1.2.89-.49.19-1.02.29-1.58.29-.82,0-1.55-.19-2.21-.57-.66-.38-1.09-.92-1.31-1.61l1.42-.8c.19.45.47.8.84,1.04.37.25.81.37,1.32.37.42,0,.75-.08.99-.25.24-.17.37-.41.37-.73,0-.26-.08-.47-.25-.64-.16-.17-.37-.3-.61-.4-.24-.1-.58-.21-1-.34-.57-.17-1.03-.33-1.39-.5-.36-.16-.67-.41-.92-.74-.26-.33-.38-.76-.38-1.3,0-.57.15-1.05.45-1.45s.7-.69,1.19-.89c.49-.2,1.02-.29,1.59-.29.78,0,1.44.18,1.99.53.55.35.91.83,1.07,1.43l-1.42.8c-.14-.38-.36-.67-.65-.88s-.65-.32-1.08-.32c-.39,0-.71.09-.95.27-.24.18-.37.42-.37.71,0,.22.08.41.23.56s.35.27.58.36c.24.09.55.2.95.32.58.17,1.05.34,1.43.51s.7.43.97.77c.27.34.4.79.4,1.34,0,.6-.15,1.1-.46,1.51Z"/>
    <path class="cls-1" d="M132.91,3.73h3.96V.27h1.75v8.78h-1.75v-3.78h-3.96v3.78h-1.74V.27h1.74v3.46Z"/>
    <path class="cls-1" d="M144.59.27l3.55,8.78h-1.85l-.77-2h-3.42l-.74,2h-1.74l3.44-8.78h1.52ZM144.96,5.56l-1.18-3.08-1.14,3.08h2.32Z"/>
    <path class="cls-1" d="M150.55.27l4.26,5.81V.27h1.62v8.78h-1.42l-4.27-5.82v5.82h-1.6V.27h1.4Z"/>
    <path class="cls-1" d="M166.97,8.02c-.31.4-.71.7-1.2.89-.49.19-1.02.29-1.58.29-.82,0-1.55-.19-2.21-.57-.66-.38-1.09-.92-1.31-1.61l1.42-.8c.19.45.47.8.84,1.04.37.25.81.37,1.32.37.42,0,.75-.08.99-.25.24-.17.37-.41.37-.73,0-.26-.08-.47-.25-.64-.16-.17-.37-.3-.61-.4-.24-.1-.58-.21-1-.34-.57-.17-1.03-.33-1.39-.5-.36-.16-.67-.41-.92-.74-.26-.33-.38-.76-.38-1.3,0-.57.15-1.05.45-1.45s.7-.69,1.19-.89c.49-.2,1.02-.29,1.59-.29.78,0,1.44.18,1.99.53.55.35.91.83,1.07,1.43l-1.42.8c-.14-.38-.36-.67-.65-.88s-.65-.32-1.08-.32c-.39,0-.71.09-.95.27-.24.18-.37.42-.37.71,0,.22.08.41.23.56s.35.27.58.36c.24.09.55.2.95.32.58.17,1.05.34,1.43.51s.7.43.97.77c.27.34.4.79.4,1.34,0,.6-.15,1.1-.46,1.51Z"/>
    <path class="cls-1" d="M167.78.27h7.08v1.55h-2.66v7.24h-1.75V1.82h-2.66V.27Z"/>
    <path class="cls-1" d="M181.51.27h1.74v5.23c0,.75-.15,1.41-.45,1.96-.29.56-.72.98-1.28,1.28-.56.3-1.22.45-1.99.45s-1.44-.15-2-.45c-.56-.3-.99-.73-1.28-1.28s-.44-1.21-.44-1.96V.27h1.74v4.81c0,.85.17,1.48.52,1.9.35.42.84.62,1.47.62s1.11-.21,1.46-.62c.35-.42.52-1.05.52-1.9V.27Z"/>
    <path class="cls-1" d="M187.93.27c.86,0,1.63.17,2.32.52.69.34,1.24.85,1.64,1.51.4.66.6,1.45.6,2.36s-.2,1.7-.6,2.36c-.4.66-.94,1.17-1.63,1.52-.69.35-1.46.52-2.33.52h-2.93V.27h2.93ZM187.73,7.57c.94,0,1.67-.25,2.17-.76s.76-1.22.76-2.16-.25-1.63-.76-2.14c-.51-.51-1.23-.76-2.17-.76h-.98v5.82h.98Z"/>
    <path class="cls-1" d="M195.66,9.06h-1.74V.27h1.74v8.78Z"/>
    <path class="cls-1" d="M197.63,2.24c.37-.69.87-1.21,1.51-1.58.64-.36,1.35-.55,2.13-.55s1.49.18,2.13.55c.64.36,1.14.89,1.51,1.58s.56,1.49.56,2.41-.19,1.74-.56,2.42-.88,1.21-1.51,1.58c-.64.36-1.35.55-2.13.55s-1.49-.18-2.13-.55c-.64-.36-1.14-.89-1.51-1.58s-.55-1.5-.55-2.42.18-1.72.55-2.41ZM199.21,6.2c.2.45.47.79.83,1.04.36.24.77.37,1.23.37s.87-.12,1.23-.37c.36-.24.63-.59.83-1.04.2-.45.29-.96.29-1.55s-.1-1.1-.29-1.54c-.2-.44-.47-.79-.83-1.03-.36-.24-.77-.37-1.23-.37s-.87.12-1.23.37c-.36.24-.63.59-.83,1.03-.2.44-.29.96-.29,1.54s.1,1.1.29,1.55Z"/>
  </g>
</svg>