<svg t="1783495169967" class="icon" viewBox="0 0 1024 1024" version="1.1" xmlns="http://www.w3.org/2000/svg" p-id="7212" width="32" height="32"><path d="M128 224c0-23.552 19.072-42.688 42.688-42.688h682.624a42.688 42.688 0 1 1 0 85.376H170.688A42.688 42.688 0 0 1 128 224zM469.312 416c0-23.552 19.136-42.688 42.688-42.688h341.312a42.688 42.688 0 1 1 0 85.376H512a42.688 42.688 0 0 1-42.688-42.688zM512 565.312a42.688 42.688 0 1 0 0 85.376h341.312a42.688 42.688 0 0 0 0-85.376H512zM128 800c0-23.552 19.072-42.688 42.688-42.688h682.624a42.688 42.688 0 0 1 0 85.376H170.688A42.688 42.688 0 0 1 128 800z" fill="#2c2c2c" p-id="7213"></path><path d="M193.28 369.152A42.688 42.688 0 0 0 128 405.312v213.376a42.688 42.688 0 0 0 65.28 36.16l170.688-106.688a42.688 42.688 0 0 0 0-72.32L193.28 369.152zM260.8 512l-47.488 29.696v-59.392L260.8 512z" fill="#2c2c2c" p-id="7214"></path></svg>